<svg width="146" height="146" viewBox="0 0 146 146" fill="none" xmlns="http://www.w3.org/2000/svg">
<circle cx="73" cy="73" r="73" fill="#FEBCF0" fill-opacity="0.3"/>
<path d="M114 64.55C113.637 63.6601 113.067 62.8209 112.227 62.1108L79.3124 41.0054C75.02 38.3315 72.8324 38.3315 68.6126 41.0054L35.84 62.1108C35.0001 62.8209 34.4276 63.6601 34.0649 64.55L73.9622 94.1419C73.9625 94.1421 114 64.55 114 64.55Z" fill="#D07C40"/>
<path d="M44 45.5287H104V87.8007H44V45.5287Z" fill="#E4E7E7"/>
<path d="M38.12 104L73.9525 80.4005L109.877 104.002C111.205 103.429 112.295 102.542 113.022 101.442L79.3125 79.0563C75.0575 76.4015 72.82 76.3592 68.6126 79.0563L34.9551 101.407C35.6801 102.518 36.7751 103.421 38.12 104Z" fill="#E8AB54"/>
<path d="M54 56.0973V60.3247H94V56.0973H54ZM54 68.7772H94V64.5518H54V68.7772Z" fill="#C2C5C5"/>
<path d="M74 89.9145L114 64.55V100.483C114 103.985 110.642 106.824 106.5 106.824H41.5C37.3576 106.824 34 103.985 34 100.483V64.55C34 64.55 74 89.9145 74 89.9145Z" fill="#E8AB54"/>
<path d="M107.3 106.754C108.92 106.608 110.385 106.035 111.527 105.156L73.9523 80.3983L36.4648 105.156C37.6097 106.038 39.0723 106.609 40.6973 106.756L107.3 106.754Z" fill="#F4B459"/>
<path d="M34.9551 103.52C35.6801 104.632 36.7774 105.535 38.12 106.116L73.9525 82.5183L109.877 106.118C111.205 105.545 112.295 104.657 113.022 103.558L79.3125 81.166C74.5901 78.2089 73.4449 78.0737 68.6126 81.166C68.6124 81.166 34.9551 103.52 34.9551 103.52Z" fill="#F9D7A7"/>
</svg>
