<svg width="37" height="37" viewBox="0 0 37 37" fill="none" xmlns="http://www.w3.org/2000/svg">
<path d="M29.9827 21.8492C29.9827 30.0278 23.2571 36.681 14.9914 36.681C6.72489 36.681 0 30.0277 0 21.8492C0 13.6713 6.72489 7.01727 14.9914 7.01727C23.2572 7.01727 29.9827 13.6713 29.9827 21.8492Z" fill="#FD7052"/>
<path d="M14.9345 9.97241C8.37372 9.97241 3.03662 15.3096 3.03662 21.8703C3.03662 28.431 8.37379 33.7682 14.9345 33.7682C21.4945 33.7682 26.8324 28.431 26.8324 21.8703C26.8324 15.3096 21.4945 9.97241 14.9345 9.97241ZM14.9345 31.6288C9.55338 31.6288 5.17612 27.2507 5.17612 21.8704C5.17612 16.4901 9.55338 12.1121 14.9345 12.1121C20.3149 12.1121 24.6922 16.4901 24.6922 21.8704C24.6922 27.2507 20.3149 31.6288 14.9345 31.6288Z" fill="white"/>
<path d="M14.9343 15.2707C11.2949 15.2707 8.33472 18.2309 8.33472 21.8703C8.33472 25.5096 11.2949 28.4699 14.9343 28.4699C18.573 28.4699 21.534 25.5096 21.534 21.8703C21.534 18.2309 18.573 15.2707 14.9343 15.2707ZM14.9343 26.3304C12.4753 26.3304 10.4742 24.3293 10.4742 21.8703C10.4742 19.4114 12.4753 17.4103 14.9343 17.4103C17.3933 17.4103 19.3944 19.4114 19.3944 21.8703C19.3944 24.3293 17.3933 26.3304 14.9343 26.3304Z" fill="white"/>
<path d="M29.9826 21.8492C29.9826 30.0278 23.257 36.681 14.9912 36.681V7.01727C23.257 7.01727 29.9826 13.6713 29.9826 21.8492Z" fill="#F5A200"/>
<path d="M21.534 21.8704C21.534 25.5098 18.573 28.47 14.9343 28.47V26.3304C17.3933 26.3304 19.3944 24.3293 19.3944 21.8703C19.3944 19.4114 17.3933 17.4103 14.9343 17.4103V15.2707C18.573 15.2708 21.534 18.2309 21.534 21.8704Z" fill="white"/>
<path d="M26.8322 21.8704C26.8322 28.4312 21.4943 33.7683 14.9343 33.7683V31.6287C20.3147 31.6287 24.692 27.2507 24.692 21.8704C24.692 16.49 20.3147 12.112 14.9343 12.112V9.97241C21.4944 9.97241 26.8322 15.3096 26.8322 21.8704Z" fill="white"/>
<path d="M36.9998 5.42059L22.6976 19.9312L14.9923 22.3265L14.9912 22.3276L17.3548 14.5096L27.7392 3.975L31.6572 0L36.9998 5.42059Z" fill="#FD7052"/>
<path d="M36.9998 5.5596L22.6969 19.9517L14.9912 22.3275L34.3275 2.87067L36.9998 5.5596Z" fill="#F5A200"/>
<path d="M22.6464 19.8833L22.646 19.8836L17.2688 21.6003L14.9924 22.3272L14.9912 22.3275L15.6899 19.9553L17.339 14.3534L22.6464 19.8833Z" fill="#FFDBA8"/>
<path d="M22.6464 19.9335L22.646 19.9338L17.2679 21.6156L14.9912 22.3276L19.9917 17.2242L22.6464 19.9335Z" fill="#FFC473"/>
<path d="M17.224 21.5453L14.9924 22.3271L14.9912 22.3275L15.6761 19.7758L17.224 21.5453Z" fill="#57555C"/>
<path d="M33.3177 9.17684L36.9995 5.49506L31.643 0.138554L27.9612 3.82034L33.3177 9.17684Z" fill="#F5A200"/>
<path d="M33.0715 9.42299L34.6741 7.82037L29.3176 2.46387L27.715 4.06649L33.0715 9.42299Z" fill="white"/>
<path d="M33.3182 9.17623L37 5.49445L34.3209 2.81538L30.6391 6.49716L33.3182 9.17623Z" fill="#FD7052"/>
<path d="M16.4496 20.7327L17.224 21.5794L14.9912 22.3276L16.4496 20.7327Z" fill="#3C3A41"/>
<path d="M33.0715 9.42311L34.6741 7.8205L31.995 5.14143L30.3924 6.74404L33.0715 9.42311Z" fill="#D9D8DB"/>
</svg>
