<svg width="76" height="76" viewBox="0 0 76 76" fill="none" xmlns="http://www.w3.org/2000/svg">
<circle cx="38" cy="38" r="38" fill="#FEBCF0" fill-opacity="0.3"/>
<path d="M51.9281 27.3151C51.7782 27.2749 51.6271 27.2603 51.4791 27.269C51.6893 27.0711 51.8504 26.8109 51.932 26.5067C52.1557 25.6717 51.6945 24.8226 50.9018 24.6102L24.5959 17.5616C23.8032 17.3492 22.9793 17.8539 22.7555 18.6889L13.4051 53.5853C13.1813 54.4203 13.6426 55.2693 14.4352 55.4817L42.3749 62.9681C43.1675 63.1805 43.9915 62.6758 44.2152 61.8408L52.9582 29.2116C53.1819 28.3766 52.7208 27.5275 51.9281 27.3151Z" fill="#C6D7E4"/>
<path d="M39.7507 21.6223L24.7063 17.5912C23.8526 17.3624 22.9793 17.8539 22.7555 18.6889L13.4051 53.5853C13.1813 54.4203 13.692 55.2826 14.5456 55.5113L29.59 59.5424L39.7507 21.6223Z" fill="#F59D00"/>
<path d="M15.2227 46.8022L13.4387 53.4599C13.1964 54.3642 13.6426 55.2694 14.4352 55.4818L42.3749 62.9682C43.1675 63.1806 44.0065 62.6197 44.2488 61.7154L46.0328 55.0577L15.2227 46.8022Z" fill="#F59D00"/>
<path d="M15.2227 46.8022L13.4387 53.4599C13.1964 54.3642 13.692 55.2826 14.5456 55.5114L29.5901 59.5425L31.8127 51.2475L15.2227 46.8022Z" fill="#E87E04"/>
<path d="M48.9644 31.328C48.615 30.7227 48.8224 29.9489 49.4276 29.5995L52.3383 27.919C52.9435 27.5695 53.7173 27.7769 54.0668 28.3821C54.4162 28.9873 54.2088 29.7611 53.6036 30.1105L50.6929 31.7911C50.0878 32.1404 49.3139 31.9331 48.9644 31.328Z" fill="#787878"/>
<path d="M58.8049 32.1122L64.7796 27.4832C65.2294 28.1119 66.0877 28.3182 66.7809 27.9347C67.5283 27.5213 67.7998 26.5797 67.3875 25.8318L63.2008 18.2362C62.7885 17.4881 61.8483 17.217 61.1011 17.6304C60.4078 18.0139 60.125 18.8518 60.4166 19.5681L53.3238 22.1683C52.8484 21.7617 52.1533 21.6687 51.5734 21.9895C50.8261 22.403 50.5545 23.3446 50.9669 24.0925L51.3505 24.7883C51.3513 24.7898 51.3519 24.7916 51.3528 24.7931C51.3535 24.7943 51.3544 24.7955 51.3551 24.7969L55.5357 32.3812C55.5364 32.3825 55.5369 32.3839 55.5377 32.3851C55.5385 32.3866 55.5395 32.3881 55.5405 32.3896L55.9241 33.0854C56.3364 33.8334 57.2765 34.1046 58.0238 33.6912C58.6036 33.3707 58.8953 32.7319 58.8049 32.1122Z" fill="#F22F0A"/>
<path d="M47.7887 37.4L23.9549 31.0138C23.1329 30.7935 22.6451 29.9486 22.8653 29.1266C23.0856 28.3045 23.9306 27.8167 24.7526 28.0369L48.5864 34.4232C49.4085 34.6435 49.8963 35.4884 49.676 36.3105C49.4558 37.1324 48.6108 37.6203 47.7887 37.4Z" fill="#F59D00"/>
<path d="M46.1009 43.6985L22.2672 37.3123C21.4452 37.092 20.9573 36.2471 21.1776 35.425C21.3979 34.603 22.2428 34.1152 23.0648 34.3354L46.8987 40.7217C47.7207 40.942 48.2085 41.7869 47.9883 42.609C47.7679 43.4311 46.9231 43.9188 46.1009 43.6985Z" fill="#F59D00"/>
<path d="M44.5163 49.6126L20.6826 43.2263C19.8606 43.0061 19.3727 42.1611 19.593 41.3391C19.8133 40.517 20.6582 40.0292 21.4803 40.2495L45.3141 46.6357C46.1361 46.856 46.624 47.701 46.4037 48.523C46.1834 49.345 45.3385 49.8329 44.5163 49.6126Z" fill="#F59D00"/>
<path d="M36.5287 31.1923L24.7526 28.0369C23.9306 27.8167 23.0856 28.3045 22.8653 29.1266C22.6451 29.9486 23.1329 30.7935 23.9549 31.0138L35.731 34.1692L36.5287 31.1923Z" fill="#F2C500"/>
<path d="M34.8409 37.4908L23.0648 34.3354C22.2428 34.1152 21.3979 34.603 21.1776 35.425C20.9573 36.2471 21.4452 37.092 22.2672 37.3123L34.0433 40.4677L34.8409 37.4908Z" fill="#F2C500"/>
<path d="M33.2563 43.4049L21.4803 40.2495C20.6582 40.0292 19.8133 40.517 19.593 41.3391C19.3727 42.1611 19.8606 43.0061 20.6826 43.2263L32.4587 46.3817L33.2563 43.4049Z" fill="#F2C500"/>
</svg>
