<svg width="76" height="76" viewBox="0 0 76 76" fill="none" xmlns="http://www.w3.org/2000/svg">
<circle cx="38" cy="38" r="38" fill="#FEBCF0" fill-opacity="0.3"/>
<path d="M42.6475 25.6806C42.6475 25.1282 42.5839 24.5912 42.4639 24.0757L43.9801 22.8439L42.244 19.8367L40.4171 20.5345C39.6367 19.8028 38.6899 19.2469 37.6393 18.929L37.3307 17H33.8583L33.5498 18.929C32.4991 19.2468 31.5524 19.8028 30.7719 20.5345L28.9453 19.8367L27.209 22.8439L28.7254 24.0757C28.6054 24.5912 28.5418 25.1282 28.5418 25.6806C28.5418 26.2329 28.6054 26.7699 28.7254 27.2854L27.209 28.5172L28.9453 31.5244L30.7719 30.8266C31.5524 31.5583 32.4992 32.1145 33.5498 32.4322L33.8583 34.3611H37.3307L37.6393 32.4322C38.69 32.1145 39.6368 31.5583 40.4171 30.8266L42.244 31.5244L43.9801 28.5172L42.4637 27.2854C42.5837 26.7699 42.6475 26.2328 42.6475 25.6806Z" fill="#78B9EB"/>
<path d="M35.5945 17.0001H33.8581L33.5495 18.9291C32.4988 19.2469 31.5521 19.803 30.7717 20.5346L28.945 19.8368L27.2087 22.844L28.7252 24.0758C28.6052 24.5913 28.5416 25.1283 28.5416 25.6807C28.5416 26.233 28.6052 26.77 28.7252 27.2856L27.2087 28.5174L28.945 31.5246L30.7717 30.8268C31.5521 31.5584 32.4989 32.1146 33.5495 32.4324L33.8581 34.3612H35.5945V17.0001Z" fill="#006DF0"/>
<path d="M58.4423 41.0383C58.4423 40.4009 58.369 39.7813 58.2305 39.1864L59.9799 37.7651L57.9767 34.2952L55.869 35.1005C54.9683 34.2563 53.8761 33.6148 52.6636 33.248L52.3075 31.0222H48.3009L47.9448 33.248C46.7327 33.6148 45.6401 34.2562 44.7397 35.1005L42.6321 34.2952L40.6287 37.7651L42.3783 39.1864C42.2398 39.7813 42.1665 40.4009 42.1665 41.0383C42.1665 41.6755 42.2397 42.2953 42.3783 42.89L40.6287 44.3114L42.6321 47.7812L44.7397 46.976C45.6401 47.8202 46.7327 48.4619 47.9448 48.8285L48.3009 51.0543H52.3075L52.6636 48.8285C53.8761 48.4619 54.9683 47.8203 55.869 46.976L57.9767 47.7812L59.9799 44.3114L58.2305 42.89C58.3689 42.2953 58.4423 41.6755 58.4423 41.0383Z" fill="#FFDA44"/>
<path d="M50.3043 31.0226H48.3009L47.9448 33.2483C46.7327 33.6152 45.6401 34.2566 44.7397 35.1009L42.6321 34.2956L40.6287 37.7655L42.3783 39.1868C42.2398 39.7816 42.1665 40.4013 42.1665 41.0386C42.1665 41.6758 42.2397 42.2956 42.3783 42.8903L40.6287 44.3117L42.6321 47.7815L44.7397 46.9763C45.6401 47.8205 46.7327 48.4623 47.9448 48.8289L48.3009 51.0547H50.3043V31.0226Z" fill="#FF9811"/>
<path d="M50.3045 45.7124C52.8859 45.7124 54.9786 43.6197 54.9786 41.0383C54.9786 38.4568 52.8859 36.3641 50.3045 36.3641C47.723 36.3641 45.6304 38.4568 45.6304 41.0383C45.6304 43.6197 47.723 45.7124 50.3045 45.7124Z" fill="white"/>
<path d="M37.3762 46.981C37.3762 46.2166 37.2884 45.4728 37.1222 44.7588L39.2216 43.0533L36.8177 38.8896L34.2882 39.856C33.2076 38.8428 31.8966 38.0729 30.442 37.6329L30.0147 34.9619H25.2069L24.7796 37.6329C23.3249 38.0729 22.0137 38.8428 20.9331 39.856L18.4038 38.8896L16 43.0533L18.0994 44.7588C17.9333 45.4727 17.8451 46.2165 17.8451 46.981C17.8451 47.7455 17.9333 48.4893 18.0994 49.2033L16 50.9087L18.4038 55.0722L20.9331 54.1059C22.0137 55.119 23.3249 55.8893 24.7796 56.329L25.2069 59H30.0147L30.442 56.329C31.8966 55.8893 33.2076 55.119 34.2882 54.1059L36.8177 55.0722L39.2216 50.9087L37.1222 49.2032C37.2882 48.4893 37.3762 47.7455 37.3762 46.981Z" fill="#006DF0"/>
<path d="M27.6107 34.9619H25.2069L24.7796 37.6329C23.3249 38.0729 22.0137 38.8428 20.9331 39.856L18.4038 38.8896L16 43.0533L18.0994 44.7588C17.9333 45.4727 17.8451 46.2165 17.8451 46.981C17.8451 47.7455 17.9333 48.4893 18.0994 49.2033L16 50.9087L18.4038 55.0722L20.9331 54.1059C22.0137 55.119 23.3249 55.8893 24.7796 56.329L25.2069 59H27.6107V34.9619Z" fill="#0052B4"/>
<path d="M27.6108 52.9572C30.9113 52.9572 33.587 50.2816 33.587 46.981C33.587 43.6804 30.9113 41.0048 27.6108 41.0048C24.3102 41.0048 21.6345 43.6804 21.6345 46.981C21.6345 50.2816 24.3102 52.9572 27.6108 52.9572Z" fill="white"/>
<path d="M35.5942 29.6868C37.8068 29.6868 39.6005 27.8931 39.6005 25.6805C39.6005 23.4679 37.8068 21.6742 35.5942 21.6742C33.3816 21.6742 31.5879 23.4679 31.5879 25.6805C31.5879 27.8931 33.3816 29.6868 35.5942 29.6868Z" fill="white"/>
</svg>
