<svg width="146" height="146" viewBox="0 0 146 146" fill="none" xmlns="http://www.w3.org/2000/svg">
<circle cx="73" cy="73" r="73" fill="#FEBCF0" fill-opacity="0.3"/>
<path d="M73 124C44.8777 124 22 101.121 22 73C22 44.8789 44.8777 22 73 22C101.122 22 124 44.8789 124 73C124 101.121 101.122 124 73 124Z" fill="#F0B90B"/>
<path d="M73 117C48.7377 117 29 97.037 29 72.5C29 47.963 48.7377 28 73 28C97.2623 28 117 47.9632 117 72.5C117 97.0368 97.2623 117 73 117Z" fill="#88CC2A"/>
<path d="M117 72.5001C117 47.9633 97.7109 28 74 28V117C97.7109 117 117 97.0369 117 72.5001Z" fill="#7FB335"/>
<path d="M68.481 93C66.7687 93 65.0566 92.3502 63.7496 91.0505L49.9606 77.3398C47.3465 74.7417 47.3465 70.5289 49.9606 67.9306C52.5747 65.3313 56.8094 65.3313 59.4235 67.9306L68.481 76.9357L87.5765 57.9495C90.1906 55.3502 94.4253 55.3502 97.0394 57.9495C99.6535 60.5476 99.6535 64.7604 97.0394 67.3587L73.2125 91.0505C71.9056 92.3502 70.1933 93 68.481 93Z" fill="white"/>
</svg>
