<svg width="76" height="76" viewBox="0 0 76 76" fill="none" xmlns="http://www.w3.org/2000/svg">
<circle cx="38" cy="38" r="38" fill="#FEBCF0" fill-opacity="0.3"/>
<path d="M49.17 58.2653L18.4329 50.0293C15.9886 49.3743 14.5354 46.843 15.1936 44.3866L21.6062 20.4548C22.2643 17.9984 24.7885 16.5329 27.2328 17.1878L57.9698 25.4238C60.4142 26.0787 61.8673 28.61 61.2091 31.0663L54.7966 54.9982C54.1385 57.4546 51.6143 58.9202 49.17 58.2653Z" fill="#F2C500"/>
<path d="M28.613 17.5576L27.2685 22.5754C26.9901 23.6146 27.6068 24.6828 28.646 24.9613C29.6852 25.2397 30.7534 24.623 31.0319 23.5838L32.3764 18.5659L28.613 17.5576Z" fill="#F59D00"/>
<path d="M24.6567 39.8496C23.6175 39.5711 23.0008 38.5029 23.2792 37.4637L25.2739 30.0195C25.5523 28.9803 26.6205 28.3636 27.6598 28.642C28.699 28.9205 29.3157 29.9887 29.0372 31.0279L27.0426 38.4721C26.7641 39.5113 25.6958 40.128 24.6567 39.8496Z" fill="#F59D00"/>
<path d="M23.6705 43.5304C22.6313 43.252 21.5631 43.8687 21.2846 44.9079L19.9401 49.9257L23.7035 50.9341L25.048 45.9163C25.3264 44.8771 24.7096 43.8088 23.6705 43.5304Z" fill="#F59D00"/>
<path d="M57.6333 25.3335L42.4119 21.255L33.7389 53.6231L48.9603 57.7016C51.3813 58.3504 53.8786 56.9085 54.5273 54.4875L60.8474 30.9006C61.4961 28.4796 60.0542 25.9822 57.6333 25.3335Z" fill="#F59D00"/>
<path d="M56.4501 48.8278L44.0804 45.5134C40.7909 44.6319 38.7532 41.2416 39.6783 38.0141C40.5769 34.8794 43.8746 33.0349 47.0818 33.8943L59.5558 37.2367L56.45 48.8278L56.4501 48.8278Z" fill="#E87E04"/>
<path d="M45.4112 41.7289C46.7449 42.0863 48.1158 41.2948 48.4731 39.9612C48.8305 38.6275 48.039 37.2567 46.7053 36.8993C45.3717 36.542 44.0008 37.3334 43.6435 38.6671C43.2861 40.0007 44.0776 41.3716 45.4112 41.7289Z" fill="#D55400"/>
</svg>
